<svg xmlns="http://www.w3.org/2000/svg" viewBox="0 0 108 82" width="90" height="68">

  <!-- Circumscribed circle (behind bales) -->
  <circle cx="54" cy="46" r="29" fill="none" stroke="#ffffff" stroke-width="2" opacity="0.85"/>

  <!-- Bale 1 (top) — center (54, 18) -->
  <rect x="39" y="8" width="30" height="20" rx="2.5" fill="#8B6914"/>
  <rect x="39" y="8" width="30" height="20" rx="2.5" fill="none" stroke="#5C4008" stroke-width="0.8"/>
  <line x1="41" y1="11" x2="68" y2="11" stroke="#A07820" stroke-width="0.6"/>
  <line x1="41" y1="14" x2="68" y2="14" stroke="#6B4F10" stroke-width="0.6"/>
  <line x1="41" y1="17" x2="68" y2="17" stroke="#A07820" stroke-width="0.6"/>
  <line x1="41" y1="20" x2="68" y2="20" stroke="#6B4F10" stroke-width="0.6"/>
  <line x1="41" y1="24" x2="68" y2="24" stroke="#A07820" stroke-width="0.6"/>
  <rect x="48" y="8" width="2.5" height="20" rx="1" fill="#C8A84B" opacity="0.8"/>
  <rect x="59" y="8" width="2.5" height="20" rx="1" fill="#C8A84B" opacity="0.8"/>

  <!-- Bale 2 (bottom-left) — center (30, 60) -->
  <rect x="15" y="50" width="30" height="20" rx="2.5" fill="#8B6914"/>
  <rect x="15" y="50" width="30" height="20" rx="2.5" fill="none" stroke="#5C4008" stroke-width="0.8"/>
  <line x1="17" y1="53" x2="44" y2="53" stroke="#A07820" stroke-width="0.6"/>
  <line x1="17" y1="56" x2="44" y2="56" stroke="#6B4F10" stroke-width="0.6"/>
  <line x1="17" y1="59" x2="44" y2="59" stroke="#A07820" stroke-width="0.6"/>
  <line x1="17" y1="62" x2="44" y2="62" stroke="#6B4F10" stroke-width="0.6"/>
  <line x1="17" y1="66" x2="44" y2="66" stroke="#A07820" stroke-width="0.6"/>
  <rect x="24" y="50" width="2.5" height="20" rx="1" fill="#C8A84B" opacity="0.8"/>
  <rect x="35" y="50" width="2.5" height="20" rx="1" fill="#C8A84B" opacity="0.8"/>

  <!-- Bale 3 (bottom-right) — center (78, 60) -->
  <rect x="63" y="50" width="30" height="20" rx="2.5" fill="#8B6914"/>
  <rect x="63" y="50" width="30" height="20" rx="2.5" fill="none" stroke="#5C4008" stroke-width="0.8"/>
  <line x1="65" y1="53" x2="92" y2="53" stroke="#A07820" stroke-width="0.6"/>
  <line x1="65" y1="56" x2="92" y2="56" stroke="#6B4F10" stroke-width="0.6"/>
  <line x1="65" y1="59" x2="92" y2="59" stroke="#A07820" stroke-width="0.6"/>
  <line x1="65" y1="62" x2="92" y2="62" stroke="#6B4F10" stroke-width="0.6"/>
  <line x1="65" y1="66" x2="92" y2="66" stroke="#A07820" stroke-width="0.6"/>
  <rect x="72" y="50" width="2.5" height="20" rx="1" fill="#C8A84B" opacity="0.8"/>
  <rect x="83" y="50" width="2.5" height="20" rx="1" fill="#C8A84B" opacity="0.8"/>

</svg>
