<svg xmlns="http://www.w3.org/2000/svg" viewBox="0 0 134 60" width="134" height="60">

  <!-- Bale 1 (left) -->
  <rect x="4" y="18" width="38" height="26" rx="3" fill="#8B6914"/>
  <rect x="4" y="18" width="38" height="26" rx="3" fill="none" stroke="#5C4008" stroke-width="1"/>
  <!-- needle texture lines -->
  <line x1="6"  y1="22" x2="40" y2="22" stroke="#A07820" stroke-width="0.7"/>
  <line x1="6"  y1="26" x2="40" y2="26" stroke="#6B4F10" stroke-width="0.7"/>
  <line x1="6"  y1="30" x2="40" y2="30" stroke="#A07820" stroke-width="0.7"/>
  <line x1="6"  y1="34" x2="40" y2="34" stroke="#6B4F10" stroke-width="0.7"/>
  <line x1="6"  y1="38" x2="40" y2="38" stroke="#A07820" stroke-width="0.7"/>
  <!-- twine bands -->
  <rect x="14" y="18" width="3" height="26" rx="1" fill="#C8A84B" opacity="0.8"/>
  <rect x="27" y="18" width="3" height="26" rx="1" fill="#C8A84B" opacity="0.8"/>

  <!-- Bale 2 (middle, slightly raised) -->
  <rect x="46" y="14" width="38" height="26" rx="3" fill="#9B7418"/>
  <rect x="46" y="14" width="38" height="26" rx="3" fill="none" stroke="#5C4008" stroke-width="1"/>
  <line x1="48" y1="18" x2="82" y2="18" stroke="#B08828" stroke-width="0.7"/>
  <line x1="48" y1="22" x2="82" y2="22" stroke="#7A5812" stroke-width="0.7"/>
  <line x1="48" y1="26" x2="82" y2="26" stroke="#B08828" stroke-width="0.7"/>
  <line x1="48" y1="30" x2="82" y2="30" stroke="#7A5812" stroke-width="0.7"/>
  <line x1="48" y1="34" x2="82" y2="34" stroke="#B08828" stroke-width="0.7"/>
  <rect x="57" y="14" width="3" height="26" rx="1" fill="#C8A84B" opacity="0.8"/>
  <rect x="70" y="14" width="3" height="26" rx="1" fill="#C8A84B" opacity="0.8"/>

  <!-- Bale 3 (right) -->
  <rect x="88" y="18" width="38" height="26" rx="3" fill="#8B6914"/>
  <rect x="88" y="18" width="38" height="26" rx="3" fill="none" stroke="#5C4008" stroke-width="1"/>
  <line x1="90" y1="22" x2="124" y2="22" stroke="#A07820" stroke-width="0.7"/>
  <line x1="90" y1="26" x2="124" y2="26" stroke="#6B4F10" stroke-width="0.7"/>
  <line x1="90" y1="30" x2="124" y2="30" stroke="#A07820" stroke-width="0.7"/>
  <line x1="90" y1="34" x2="124" y2="34" stroke="#6B4F10" stroke-width="0.7"/>
  <line x1="90" y1="38" x2="124" y2="38" stroke="#A07820" stroke-width="0.7"/>
  <rect x="99"  y="18" width="3" height="26" rx="1" fill="#C8A84B" opacity="0.8"/>
  <rect x="112" y="18" width="3" height="26" rx="1" fill="#C8A84B" opacity="0.8"/>


</svg>
